<?xml version="1.0" encoding="UTF-8" standalone="no"?>
<!-- Created with Inkscape (http://www.inkscape.org/) -->

<svg
   xmlns:dc="http://purl.org/dc/elements/1.1/"
   xmlns:cc="http://creativecommons.org/ns#"
   xmlns:rdf="http://www.w3.org/1999/02/22-rdf-syntax-ns#"
   xmlns:svg="http://www.w3.org/2000/svg"
   xmlns="http://www.w3.org/2000/svg"
   xmlns:sodipodi="http://sodipodi.sourceforge.net/DTD/sodipodi-0.dtd"
   xmlns:inkscape="http://www.inkscape.org/namespaces/inkscape"
   id="svg3336"
   version="1.1"
   inkscape:version="0.91 r13725"
   width="354.10257"
   height="403.22656"
   viewBox="0 0 354.10257 403.22656"
   sodipodi:docname="hexagon_round.svg">
  <metadata
     id="metadata3342">
    <rdf:RDF>
      <cc:Work
         rdf:about="">
        <dc:format>image/svg+xml</dc:format>
        <dc:type
           rdf:resource="http://purl.org/dc/dcmitype/StillImage" />
        <dc:title></dc:title>
      </cc:Work>
    </rdf:RDF>
  </metadata>
  <defs
     id="defs3340" />
  <sodipodi:namedview
     pagecolor="#ffffff"
     bordercolor="#666666"
     borderopacity="1"
     objecttolerance="10"
     gridtolerance="10"
     guidetolerance="10"
     inkscape:pageopacity="0"
     inkscape:pageshadow="2"
     inkscape:window-width="1600"
     inkscape:window-height="837"
     id="namedview3338"
     showgrid="false"
     fit-margin-top="0"
     fit-margin-left="0"
     fit-margin-right="0"
     fit-margin-bottom="0"
     inkscape:zoom="1.0858559"
     inkscape:cx="68.275735"
     inkscape:cy="174.27208"
     inkscape:window-x="-8"
     inkscape:window-y="-8"
     inkscape:window-maximized="1"
     inkscape:current-layer="svg3336" />
  <path
     sodipodi:nodetypes="cc"
     inkscape:connector-curvature="0"
     id="path3361"
     d="m -171.66019,100.33264 c -47.03554,252.00677 -23.51777,126.00339 0,0 z"
     style="fill:#aeaeae" />
  <g
     id="g3368"
     transform="translate(-7.3757134,-3.6247848)">
    <path
       style="fill:#c9c9c9"
       d="m 176.75417,404.81303 c -2.75,-1.31703 -14,-7.61205 -25,-13.98896 -11,-6.37691 -23.65625,-13.66443 -28.125,-16.19452 -4.46875,-2.53008 -16.09041,-9.19553 -25.825915,-14.81213 -9.7355,-5.61658 -18.00417,-10.21197 -18.37483,-10.21197 -0.37065,0 -3.09275,-1.62867 -6.04909,-3.61929 -5.3259,-3.58612 -8.20209,-5.25852 -30.77615,-17.89526 -15.05655,-8.42852 -20.7527,-13.38817 -23.43114,-20.40155 -5.96128,-12.59693 7.80516,-2.02059 10.92513,-0.19095 6.41135,3.77884 18.9695,11.04738 27.907,16.1523 8.9375,5.10491 36.92316,21.13676 62.190355,35.62631 49.28827,28.26449 52.36929,29.55803 63.35648,26.59949 2.89391,-0.77925 7.04849,-2.42735 9.2324,-3.66245 22.13649,-12.51911 41.45115,-23.57455 47.09576,-26.95694 3.78125,-2.26581 24.3125,-14.11192 45.625,-26.3247 21.3125,-12.21276 42.09823,-24.22933 46.1905,-26.7035 8.29597,-5.01568 14.92379,-12.80787 16.87749,-19.84253 2.02891,-62.8174 1.30134,-105.43406 1.30703,-174.46673 l 2.9126,2.73624 c 1.60193,1.50494 4.13317,5.18022 5.625,8.16731 2.7075,5.42126 2.71237,5.59213 2.70068,94.66916 0,0 0.81922,61.30297 -0.0112,89.23809 -1.40623,14.25822 -34.96213,30.48527 -41.85154,34.44371 -15.8125,9.0679 -29.63804,17.26205 -30.72343,18.2092 -1.08538,0.94715 -2.36851,1.72209 -2.85139,1.72209 -0.48287,0 -10.28232,5.41317 -21.77656,12.02926 -11.49425,6.6161 -23.42987,13.43564 -26.52362,15.15453 -7.39555,4.10897 -10.75495,6.05071 -25.43663,14.70248 -11.36955,6.69997 -12.9956,7.29189 -21.25,7.73551 -6.95764,0.37392 -10.04637,-0.0503 -13.93837,-1.9142 z"
       id="path3363"
       inkscape:connector-curvature="0"
       sodipodi:nodetypes="cssssssccsssssssccsssccsssssscc" />
    <path
       sodipodi:nodetypes="csssssssssssccssssscc"
       style="fill:#989898"
       d="M 165.85374,387.41722 C 158.61035,383.66103 56.225128,325.02217 31.880908,310.68727 15.323468,300.93754 10.752098,296.01878 8.4788584,285.50686 c -0.97831,-4.52394 -1.28107,-32.2264 -1.00648,-92.09519 0.38996,-85.02501 0.41165,-85.66004 3.0956696,-90.625 4.29709,-7.948857 9.53053,-11.895547 34.79704,-26.241427 13.0625,-7.41666 25.4375,-14.46795 27.5,-15.66952 24.44496,-14.241175 50.101242,-29.080612 55.625002,-32.173173 3.78125,-2.116989 14.66316,-8.346843 24.18202,-13.844119 18.6512,-10.7713281 25.15245,-12.7321041 34.16694,-10.3047531 2.71633,0.73143 13.6209,6.3126291 24.2324,12.4026651 10.6115,6.090037 32.79364,18.841804 49.29364,28.33726 16.5,9.495457 40.6875,23.40615 53.75,30.91266 13.08091,8.65553 30.40094,17.51197 36.20743,29.092997 5.26651,7.66546 1.90564,92.40526 1.90564,92.40526 -0.0273,85.9652 -0.0636,88.8244 -2.47423,93.80415 -4.57555,9.45184 -9.12933,12.53142 -67.51355,45.65751 -14.29369,8.10996 -26.57574,15.16273 -38.125,21.89263 -19.1957,11.18558 -47.2913,27.22955 -51.8268,29.59565 -6.85997,3.57871 -18.16815,3.04945 -26.43455,-1.23724 z"
       id="path3359"
       inkscape:connector-curvature="0" />
  </g>
</svg>
