<?xml version="1.0" encoding="UTF-8" standalone="no"?>
<!-- Created with Inkscape (http://www.inkscape.org/) -->

<svg
   xmlns:dc="http://purl.org/dc/elements/1.1/"
   xmlns:cc="http://creativecommons.org/ns#"
   xmlns:rdf="http://www.w3.org/1999/02/22-rdf-syntax-ns#"
   xmlns:svg="http://www.w3.org/2000/svg"
   xmlns="http://www.w3.org/2000/svg"
   xmlns:sodipodi="http://sodipodi.sourceforge.net/DTD/sodipodi-0.dtd"
   xmlns:inkscape="http://www.inkscape.org/namespaces/inkscape"
   id="svg3336"
   version="1.1"
   inkscape:version="0.91 r13725"
   width="345.90903"
   height="387.39771"
   viewBox="0 0 345.90903 387.3977"
   sodipodi:docname="hexagon_round_bg.svg">
  <metadata
     id="metadata3342">
    <rdf:RDF>
      <cc:Work
         rdf:about="">
        <dc:format>image/svg+xml</dc:format>
        <dc:type
           rdf:resource="http://purl.org/dc/dcmitype/StillImage" />
        <dc:title></dc:title>
      </cc:Work>
    </rdf:RDF>
  </metadata>
  <defs
     id="defs3340" />
  <sodipodi:namedview
     pagecolor="#ffffff"
     bordercolor="#666666"
     borderopacity="1"
     objecttolerance="10"
     gridtolerance="10"
     guidetolerance="10"
     inkscape:pageopacity="0"
     inkscape:pageshadow="2"
     inkscape:window-width="1600"
     inkscape:window-height="837"
     id="namedview3338"
     showgrid="false"
     fit-margin-top="0"
     fit-margin-left="0"
     fit-margin-right="0"
     fit-margin-bottom="0"
     inkscape:zoom="1.0858559"
     inkscape:cx="68.275735"
     inkscape:cy="158.44323"
     inkscape:window-x="-8"
     inkscape:window-y="-8"
     inkscape:window-maximized="1"
     inkscape:current-layer="svg3336" />
  <path
     sodipodi:nodetypes="cc"
     inkscape:connector-curvature="0"
     id="path3361"
     d="m -171.66019,100.33264 c -47.03554,252.00677 -23.51777,126.00339 0,0 z"
     style="fill:#aeaeae" />
  <path
     inkscape:connector-curvature="0"
     id="path3359"
     d="M 158.47803,383.79244 C 151.23464,380.03625 48.849415,321.39739 24.505195,307.06249 7.9477546,297.31276 3.3763846,292.394 1.103145,281.88208 c -0.97831,-4.52394 -1.28107,-32.2264 -1.00648,-92.09519 0.38996,-85.02501 0.41165,-85.66004 3.0956696,-90.625005 4.29709,-7.948857 9.5305304,-11.895547 34.7970404,-26.241427 13.0625,-7.41666 25.4375,-14.46795 27.5,-15.66952 24.44496,-14.241175 50.101245,-29.080612 55.625005,-32.173173 3.78125,-2.116989 14.66316,-8.346843 24.18202,-13.844119 18.6512,-10.7713279 25.15245,-12.7321039 34.16694,-10.3047529 2.71633,0.73143 13.6209,6.3126291 24.2324,12.4026649 10.6115,6.090037 32.79364,18.841804 49.29364,28.33726 16.5,9.495457 40.6875,23.40615 53.75,30.91266 13.08091,8.65553 30.40094,17.51197 36.20743,29.093002 5.26651,7.66546 1.90564,92.40526 1.90564,92.40526 -0.0273,85.9652 -0.0636,88.8244 -2.47423,93.80415 -4.57555,9.45184 -9.12933,12.53142 -67.51355,45.65751 -14.29369,8.10996 -26.57574,15.16273 -38.125,21.89263 -19.1957,11.18558 -47.2913,27.22955 -51.8268,29.59565 -6.85997,3.57871 -18.16815,3.04945 -26.43455,-1.23724 z"
     style="fill:#3B3B3B;"
     sodipodi:nodetypes="csssssssssssccssssscc" />
</svg>
