<?xml version="1.0" encoding="UTF-8" standalone="no"?>
<!-- Created with Inkscape (http://www.inkscape.org/) -->

<svg
   xmlns:dc="http://purl.org/dc/elements/1.1/"
   xmlns:cc="http://creativecommons.org/ns#"
   xmlns:rdf="http://www.w3.org/1999/02/22-rdf-syntax-ns#"
   xmlns:svg="http://www.w3.org/2000/svg"
   xmlns="http://www.w3.org/2000/svg"
   xmlns:sodipodi="http://sodipodi.sourceforge.net/DTD/sodipodi-0.dtd"
   xmlns:inkscape="http://www.inkscape.org/namespaces/inkscape"
   id="svg3336"
   version="1.1"
   inkscape:version="0.91 r13725"
   width="907.04382"
   height="1052.6615"
   viewBox="0 0 907.04382 1052.6615"
   sodipodi:docname="logo-1.svg">
  <metadata
     id="metadata3342">
    <rdf:RDF>
      <cc:Work
         rdf:about="">
        <dc:format>image/svg+xml</dc:format>
        <dc:type
           rdf:resource="http://purl.org/dc/dcmitype/StillImage" />
        <dc:title></dc:title>
      </cc:Work>
    </rdf:RDF>
  </metadata>
  <defs
     id="defs3340" />
  <sodipodi:namedview
     pagecolor="#ffffff"
     bordercolor="#666666"
     borderopacity="1"
     objecttolerance="10"
     gridtolerance="10"
     guidetolerance="10"
     inkscape:pageopacity="0"
     inkscape:pageshadow="2"
     inkscape:window-width="1600"
     inkscape:window-height="837"
     id="namedview3338"
     showgrid="false"
     fit-margin-top="0"
     fit-margin-left="0"
     fit-margin-right="0"
     fit-margin-bottom="0"
     inkscape:zoom="0.45146698"
     inkscape:cx="1475.0937"
     inkscape:cy="385.27776"
     inkscape:window-x="-8"
     inkscape:window-y="-8"
     inkscape:window-maximized="1"
     inkscape:current-layer="svg3336" />
  <path
     inkscape:connector-curvature="0"
     id="path3350"
     d="M 305.38046,780.38575 160.608,695.69941 l 1.049,-169.55208 1.049,-169.55208 145.65194,-84.46089 c 80.10858,-46.45348 146.07067,-84.62306 146.58244,-84.82128 0.51174,-0.1982 35.53615,19.86576 77.83201,44.58659 42.29587,24.72085 77.97021,45.22924 79.27632,45.57424 2.31862,0.61244 2.3885,-1.59695 2.95759,-93.50964 0.46402,-74.94357 0.26313,-93.95549 -0.98526,-93.247238 -1.05527,0.598686 -1.15667,0.468479 -0.31005,-0.398131 1.86039,-1.904328 134.92553,-78.872837 135.42238,-78.331997 0.23332,0.25396 -0.8323,154.209346 -2.36816,342.123066 l -2.79234,341.66133 -145.49424,84.42494 c -80.02184,46.43372 -146.13132,84.5264 -146.90996,84.6504 -0.77867,0.12404 -66.56335,-37.88341 -146.1882,-84.46089 z m 227.35659,-116.33444 79.58245,-46.14512 0.57589,-93.01172 0.5759,-93.01173 -79.01468,-46.15287 c -43.45807,-25.38406 -79.36804,-46.15286 -79.79993,-46.15286 -0.43189,0 -36.59904,20.7688 -80.37145,46.15286 l -79.58619,46.15287 -0.57589,93.01123 -0.57589,93.01124 78.78265,46.08898 c 43.33045,25.34895 79.24212,46.11446 79.80367,46.14561 0.56158,0.0312 36.83314,-20.70867 80.60347,-46.08849 z"
     style="fill:#181818" />
  <path
     inkscape:connector-curvature="0"
     id="path3348"
     d="M 224.4951,921.55777 0,790.24518 1.6153,526.10145 3.2307,261.95773 227.9413,131.53045 C 351.53217,59.795444 453.64068,0.62587428 454.84913,0.04251428 c 1.67106,-0.80667 20.65615,9.72147002 79.28342,43.96641972 42.3974,24.76489 77.69746,45.517328 78.44456,46.116531 0.7471,0.599202 1.73082,0.716197 2.18605,0.259988 0.45521,-0.456208 0.56502,41.593197 0.24398,93.443117 -0.56991,92.04607 -0.63971,94.25778 -2.95843,93.64534 -1.30611,-0.345 -36.98045,-20.8534 -79.27632,-45.57424 -42.29586,-24.72083 -77.32027,-44.78479 -77.83201,-44.58659 -0.51177,0.19822 -66.47386,38.3678 -146.58244,84.82128 l -145.65194,84.46089 -1.0498,169.55208 -1.0498,169.55208 144.66362,84.46089 c 79.56501,46.45348 145.32611,84.46088 146.13579,84.46088 0.80968,0 67.04144,-38.0074 147.18169,-84.46088 l 145.70953,-84.46089 1.65499,-263.25744 c 0.95488,-151.87948 2.12131,-263.07966 2.75715,-262.83723 0.60618,0.2311 36.47945,21.10388 79.7184,46.38395 l 78.61627,45.96375 -1.65489,264.14637 -1.65489,264.14637 -226.01628,131.10346 C 553.40882,993.45555 451.09143,1052.5462 450.34579,1052.6613 449.60015,1052.7764 347.96729,993.77972 224.495,921.55777 Z m 147.83481,-257.56358 -78.78265,-46.08899 0.57589,-93.01123 0.57589,-93.01123 79.58619,-46.15287 c 43.77241,-25.38406 79.93956,-46.15286 80.37145,-46.15286 0.43189,0 36.34186,20.7688 79.79993,46.15286 l 79.01468,46.15287 -0.5759,93.01173 -0.57589,93.01172 -79.58245,46.14512 c -43.77033,25.37982 -80.04189,46.11964 -80.60347,46.08849 -0.56155,-0.0312 -36.47322,-20.79666 -79.80367,-46.14561 z"
     style="fill:#920101" />
</svg>
