<?xml version="1.0" encoding="UTF-8" standalone="no"?>
<!-- Created with Inkscape (http://www.inkscape.org/) -->

<svg
   xmlns:dc="http://purl.org/dc/elements/1.1/"
   xmlns:cc="http://creativecommons.org/ns#"
   xmlns:rdf="http://www.w3.org/1999/02/22-rdf-syntax-ns#"
   xmlns:svg="http://www.w3.org/2000/svg"
   xmlns="http://www.w3.org/2000/svg"
   xmlns:sodipodi="http://sodipodi.sourceforge.net/DTD/sodipodi-0.dtd"
   xmlns:inkscape="http://www.inkscape.org/namespaces/inkscape"
   id="svg3336"
   version="1.1"
   inkscape:version="0.91 r13725"
   width="79.831589"
   height="91.180283"
   viewBox="0 0 79.831589 91.180282"
   sodipodi:docname="twitter_hex.svg">
  <metadata
     id="metadata3342">
    <rdf:RDF>
      <cc:Work
         rdf:about="">
        <dc:format>image/svg+xml</dc:format>
        <dc:type
           rdf:resource="http://purl.org/dc/dcmitype/StillImage" />
        <dc:title></dc:title>
      </cc:Work>
    </rdf:RDF>
  </metadata>
  <defs
     id="defs3340" />
  <sodipodi:namedview
     pagecolor="#ffffff"
     bordercolor="#666666"
     borderopacity="1"
     objecttolerance="10"
     gridtolerance="10"
     guidetolerance="10"
     inkscape:pageopacity="0"
     inkscape:pageshadow="2"
     inkscape:window-width="1600"
     inkscape:window-height="837"
     id="namedview3338"
     showgrid="false"
     showguides="true"
     inkscape:guide-bbox="true"
     fit-margin-top="0"
     fit-margin-left="0"
     fit-margin-right="0"
     fit-margin-bottom="0"
     inkscape:zoom="4.5527453"
     inkscape:cx="12.786795"
     inkscape:cy="51.150347"
     inkscape:window-x="-8"
     inkscape:window-y="-8"
     inkscape:window-maximized="1"
     inkscape:current-layer="svg3336" />
  <g
     id="g3397"
     transform="translate(0.0133072,-0.55710718)">
    <path
       sodipodi:nodetypes="scccccsscccscs"
       inkscape:connector-curvature="0"
       id="path3360"
       d="m 19.753381,80.321745 -19.7608882,-11.445307 -0.0029,-22.60505 -0.0029,-22.605051 19.8240742,-11.554615 19.824074,-11.55461482 0.48328,0.2737978 c 0.265805,0.1505888 9.307078,5.35121962 20.09172,11.55695702 l 19.608439,11.283159 0,22.539764 0,22.539762 -20.051602,11.478552 c -11.028381,6.313203 -20.096799,11.491917 -20.15204,11.508253 -0.05524,0.01633 -8.992835,-5.120687 -19.861324,-11.415607 z"
       style="fill:#00aad4;fill-opacity:1;stroke:none" />
    <path
       inkscape:connector-curvature="0"
       id="path3389"
       d="m 28.967576,62.161521 c -2.138405,-0.420869 -4.729423,-1.316377 -6.535235,-2.258702 l -1.085911,-0.56666 1.864386,-0.202729 c 2.717735,-0.29552 5.988523,-1.284358 7.858642,-2.375855 0.899138,-0.524783 1.634798,-1.048362 1.634798,-1.163509 0,-0.11514 -0.700199,-0.373277 -1.555995,-0.573623 -2.026374,-0.47438 -3.906987,-1.728639 -5.02278,-3.349896 -0.492021,-0.714913 -0.894583,-1.398388 -0.894583,-1.518836 0,-0.120441 0.735658,-0.319699 1.634796,-0.44278 l 1.634798,-0.223783 -1.332515,-0.566354 c -2.884952,-1.226186 -4.775155,-3.503446 -5.23444,-6.3063 l -0.210053,-1.281881 0.839807,0.311584 c 0.461895,0.171369 1.26996,0.311584 1.795701,0.311584 l 0.955893,0 -0.830791,-0.637719 c -2.047978,-1.57204 -3.311372,-6.445981 -2.382688,-9.191974 l 0.372228,-1.100624 2.702039,2.279032 c 4.016805,3.387973 8.649381,5.515812 13.222554,6.073396 l 1.779386,0.216951 0.003,-1.934206 c 0.0056,-3.585351 1.960459,-6.25566 5.535811,-7.561981 3.00841,-1.099179 6.466776,-0.610262 8.382828,1.185097 0.881942,0.826391 1.681869,0.803584 3.967009,-0.113104 1.01866,-0.40864 1.904776,-0.691585 1.969148,-0.628769 0.239491,0.233711 -0.909832,2.019307 -1.95836,3.042517 -0.596444,0.58203 -1.084433,1.116628 -1.084433,1.187999 0,0.165088 2.154585,-0.303559 3.230125,-0.702602 1.266588,-0.469929 1.020328,0.125313 -0.851865,2.059039 l -1.669806,1.724698 -0.204682,2.493656 c -0.800423,9.751563 -6.940484,17.803819 -15.836232,20.768093 -4.353983,1.450851 -8.786895,1.816949 -12.692633,1.048245 z"
       style="fill:#ffffff;fill-opacity:1;stroke:none" />
  </g>
</svg>
